<svg xmlns="http://www.w3.org/2000/svg" viewBox="0 0 48 48" fill="none">
  <!-- House body -->
  <path d="M8 24v18a2 2 0 002 2h28a2 2 0 002-2V24" fill="#F5EFE6" stroke="#5C5C4D" stroke-width="1.5"/>

  <!-- Roof -->
  <path d="M4 26L24 8l20 18" fill="none" stroke="#5C5C4D" stroke-width="2.5" stroke-linecap="round" stroke-linejoin="round"/>
  <path d="M6 24.5L24 9l18 15.5" fill="#6B705C"/>

  <!-- Chimney -->
  <rect x="32" y="12" width="5" height="10" rx="0.5" fill="#5C5C4D"/>

  <!-- Heart on gable -->
  <path d="M24 16c-1.5-2-4-2-5 0s0 4 5 7c5-3 6.5-5 5-7s-3.5-2-5 0z" fill="#A68A64" opacity="0.7"/>

  <!-- Door -->
  <rect x="20" y="28" width="8" height="16" rx="1" fill="#8B6914"/>
  <circle cx="26" cy="36" r="1" fill="#5C5C4D"/>

  <!-- Windows -->
  <rect x="11" y="28" width="6" height="8" rx="0.5" fill="#D4C4A8" stroke="#5C5C4D" stroke-width="1"/>
  <line x1="14" y1="28" x2="14" y2="36" stroke="#5C5C4D" stroke-width="0.75"/>
  <line x1="11" y1="32" x2="17" y2="32" stroke="#5C5C4D" stroke-width="0.75"/>

  <rect x="31" y="28" width="6" height="8" rx="0.5" fill="#D4C4A8" stroke="#5C5C4D" stroke-width="1"/>
  <line x1="34" y1="28" x2="34" y2="36" stroke="#5C5C4D" stroke-width="0.75"/>
  <line x1="31" y1="32" x2="37" y2="32" stroke="#5C5C4D" stroke-width="0.75"/>

  <!-- Floral accents (simplified) -->
  <circle cx="9" cy="42" r="2" fill="#87A878" opacity="0.6"/>
  <circle cx="6" cy="40" r="1.5" fill="#87A878" opacity="0.5"/>
  <circle cx="39" cy="42" r="2" fill="#87A878" opacity="0.6"/>
  <circle cx="42" cy="40" r="1.5" fill="#87A878" opacity="0.5"/>

  <!-- Small flowers -->
  <circle cx="7" cy="41" r="1" fill="#F9F3E3"/>
  <circle cx="41" cy="41" r="1" fill="#F9F3E3"/>
</svg>